<svg width="232" height="40" viewBox="0 0 232 40" fill="none" xmlns="http://www.w3.org/2000/svg">
<ellipse cx="25.1706" cy="38.2967" rx="23.7185" ry="1.45215" fill="#E5EEF2"/>
<path fill-rule="evenodd" clip-rule="evenodd" d="M40.1765 5.38126H45.501V15.0623H40.1765V9.25368L35.82 9.25368L30.8564 9.25368H21.1755L19.3623 5.42634L35.82 5.38127V5.40778L40.1765 5.39585V5.38126Z" fill="#FF6304"/>
<path fill-rule="evenodd" clip-rule="evenodd" d="M9.66157 1.65297L13.9859 0L13.9859 9.99293e-05L13.986 6.07944e-05L15.5087 3.98356L15.4951 3.98877L19.6039 14.8482L14.7054 14.8482L11.1843 5.63657L6.49628 7.42857L10.7094 18.4505H40.6603H45.0167H45.0167V34.4242L45.0167 34.4242H39.6922V38.2966H34.8517V34.4242H16.9418V38.2966H12.1013V34.4242H11.6172V34.9083H6.29262V34.4242V31.5199V25.2273H11.6172V31.5199H12.1013H16.9418H34.8517H39.6922H40.6603V21.8389H6.29262V21.8083L1.52269 9.32972L0 5.34622L4.97358 3.44507L9.6616 1.65307L9.66157 1.65297Z" fill="#00567A"/>
<path d="M67.5011 29C65.5801 29 64.0104 28.6294 62.7922 27.8882C61.5974 27.147 61 26.2264 61 25.1266C61 24.5049 61.1874 24.0267 61.5623 23.692C61.9605 23.3333 62.4642 23.154 63.0733 23.154C63.7996 23.154 64.397 23.3572 64.8655 23.7637C64.8655 26.2025 65.8378 27.4219 67.7823 27.4219C68.6257 27.4219 69.2933 27.2187 69.7853 26.8122C70.2773 26.3819 70.5233 25.808 70.5233 25.0907C70.5233 24.493 70.3476 24.0148 69.9962 23.6561C69.6448 23.2736 69.1879 22.9627 68.6257 22.7236C68.0868 22.4606 67.4894 22.2096 66.8334 21.9705C66.0369 21.6835 65.2404 21.3488 64.4438 20.9662C63.6707 20.5598 63.0148 20.0338 62.4759 19.3882C61.9605 18.7426 61.7028 17.8938 61.7028 16.8418C61.7028 15.3594 62.2768 14.1878 63.4247 13.327C64.5961 12.4423 66.2126 12 68.2742 12C69.9844 12 71.3901 12.3108 72.4912 12.9325C73.5923 13.5302 74.1428 14.3193 74.1428 15.2996C74.1428 15.8734 73.9437 16.3277 73.5454 16.6624C73.1706 16.9972 72.6786 17.1646 72.0695 17.1646C71.4838 17.1646 70.9801 16.9733 70.5584 16.5907C70.5584 15.6104 70.3124 14.8692 69.8205 14.3671C69.3519 13.8411 68.6959 13.5781 67.8525 13.5781C67.1497 13.5781 66.5875 13.7454 66.1658 14.0802C65.7675 14.4149 65.5684 14.8692 65.5684 15.443C65.5684 16.2321 65.9198 16.8298 66.6226 17.2363C67.3489 17.6188 68.1805 17.9775 69.1176 18.3122C69.9844 18.6231 70.8396 18.9817 71.6829 19.3882C72.5498 19.7947 73.2643 20.3446 73.8266 21.038C74.3888 21.7075 74.67 22.5921 74.67 23.692C74.67 25.3418 74.014 26.6449 72.702 27.6013C71.4135 28.5338 69.6799 29 67.5011 29Z" fill="#00567A"/>
<path d="M84.9658 29C83.3961 29 82.0256 28.6772 80.8543 28.0316C79.6829 27.3622 78.7692 26.4297 78.1132 25.2342C77.4573 24.0387 77.1293 22.6399 77.1293 21.038C77.1293 19.2925 77.5041 17.7384 78.2538 16.3755C79.0035 15.0127 80.0226 13.9487 81.3111 13.1835C82.623 12.3945 84.1107 12 85.774 12C86.9454 12 88.0114 12.1913 88.9719 12.5738C89.9558 12.9564 90.729 13.4824 91.2912 14.1519C91.8769 14.7975 92.1697 15.5148 92.1697 16.3038C92.1697 16.8776 91.9823 17.3319 91.6075 17.6667C91.2326 18.0014 90.7055 18.1688 90.0261 18.1688C89.4639 18.1688 88.925 18.0134 88.4096 17.7025C88.4096 15.0246 87.4608 13.6857 85.5632 13.6857C84.3684 13.6857 83.443 14.2236 82.787 15.2996C82.1545 16.3755 81.8382 17.9058 81.8382 19.8903C81.8382 24.3136 83.4899 26.5253 86.7931 26.5253C88.5033 26.5253 90.1667 25.8678 91.7832 24.5527L92.3455 25.8439C91.5489 26.8003 90.4713 27.5654 89.1125 28.1392C87.7771 28.7131 86.3949 29 84.9658 29Z" fill="#00567A"/>
<path d="M94.7735 28.5696C94.7735 27.5176 94.9609 26.9079 95.3358 26.7405L96.9523 26.0949V15.0844L95.3006 14.654C94.9492 14.5584 94.7735 13.9726 94.7735 12.8966C95.9214 12.7053 96.8 12.5738 97.4091 12.5021C98.0182 12.4304 98.5219 12.3945 98.9202 12.3945C99.7401 12.3945 100.314 12.5738 100.642 12.9325C100.97 13.2911 101.134 13.9128 101.134 14.7975V15.6582H101.345C101.884 14.5584 102.587 13.6737 103.453 13.0042C104.32 12.3347 105.175 12 106.019 12C107.003 12 107.729 12.2271 108.197 12.6814C108.666 13.1357 108.9 13.7574 108.9 14.5464C108.9 15.1681 108.689 15.6941 108.268 16.1245C107.869 16.5549 107.366 16.77 106.757 16.77C106.476 16.1723 106.159 15.7658 105.808 15.5506C105.48 15.3354 105.093 15.2278 104.648 15.2278C104.133 15.2278 103.571 15.4191 102.961 15.8017C102.376 16.1842 101.849 16.6744 101.38 17.2722V25.9156L104.121 26.597C104.121 27.3861 103.899 28.0436 103.453 28.5696H94.7735Z" fill="#00567A"/>
<path d="M117.497 29C115.951 29 114.592 28.6653 113.421 27.9958C112.249 27.3263 111.336 26.3938 110.68 25.1983C110.047 24.0028 109.731 22.616 109.731 21.038C109.731 19.3165 110.106 17.7743 110.856 16.4114C111.605 15.0485 112.613 13.9726 113.878 13.1835C115.166 12.3945 116.595 12 118.165 12C120.203 12 121.831 12.6456 123.05 13.9367C124.268 15.2039 124.877 16.8896 124.877 18.9937C124.877 19.5914 124.795 19.9859 124.631 20.1772C124.467 20.3446 124.209 20.4283 123.858 20.4283H114.475C114.592 22.365 115.084 23.8713 115.951 24.9473C116.841 25.9993 118.083 26.5253 119.676 26.5253C120.543 26.5253 121.351 26.334 122.101 25.9515C122.874 25.5689 123.635 25.019 124.385 24.3017L124.947 25.5928C124.151 26.621 123.073 27.4459 121.714 28.0675C120.355 28.6892 118.95 29 117.497 29ZM117.849 13.6857C116.935 13.6857 116.174 14.128 115.564 15.0127C114.955 15.8734 114.604 17.1048 114.51 18.7068L120.801 18.5274C120.754 16.9972 120.473 15.8136 119.957 14.9768C119.442 14.116 118.739 13.6857 117.849 13.6857Z" fill="#00567A"/>
<path d="M135.239 29C133.693 29 132.334 28.6653 131.163 27.9958C129.992 27.3263 129.078 26.3938 128.422 25.1983C127.79 24.0028 127.473 22.616 127.473 21.038C127.473 19.3165 127.848 17.7743 128.598 16.4114C129.347 15.0485 130.355 13.9726 131.62 13.1835C132.908 12.3945 134.338 12 135.907 12C137.945 12 139.574 12.6456 140.792 13.9367C142.01 15.2039 142.619 16.8896 142.619 18.9937C142.619 19.5914 142.537 19.9859 142.373 20.1772C142.209 20.3446 141.951 20.4283 141.6 20.4283H132.217C132.334 22.365 132.826 23.8713 133.693 24.9473C134.584 25.9993 135.825 26.5253 137.418 26.5253C138.285 26.5253 139.093 26.334 139.843 25.9515C140.616 25.5689 141.377 25.019 142.127 24.3017L142.689 25.5928C141.893 26.621 140.815 27.4459 139.456 28.0675C138.098 28.6892 136.692 29 135.239 29ZM135.591 13.6857C134.677 13.6857 133.916 14.128 133.307 15.0127C132.698 15.8734 132.346 17.1048 132.252 18.7068L138.543 18.5274C138.496 16.9972 138.215 15.8136 137.699 14.9768C137.184 14.116 136.481 13.6857 135.591 13.6857Z" fill="#00567A"/>
<path d="M145.426 28.5696C145.426 27.4937 145.614 26.884 145.989 26.7405L147.605 26.0949V15.0844L145.953 14.654C145.602 14.5584 145.426 13.9726 145.426 12.8966C146.551 12.7053 147.418 12.5738 148.027 12.5021C148.636 12.4304 149.151 12.3945 149.573 12.3945C150.346 12.3945 150.908 12.5738 151.26 12.9325C151.611 13.2911 151.787 13.865 151.787 14.654V15.4072H152.033C153.064 14.3551 154.176 13.5302 155.371 12.9325C156.566 12.3108 157.702 12 158.78 12C161.474 12 162.821 13.865 162.821 17.5949V25.9515L165 26.597C165 27.0513 164.953 27.4219 164.859 27.7089C164.789 27.9958 164.625 28.2827 164.367 28.5696H156.672C156.672 27.4937 156.859 26.884 157.234 26.7405L158.393 26.3101V18.1329C158.393 16.1006 157.655 15.0844 156.18 15.0844C155.336 15.0844 154.54 15.3115 153.79 15.7658C153.04 16.2201 152.455 16.6864 152.033 17.1646V26.1667L153.79 26.597C153.79 27.3861 153.567 28.0436 153.122 28.5696H145.426Z" fill="#00567A"/>
<path d="M174.494 29C172.575 29 171.007 28.6443 169.79 27.9329C168.597 27.2215 168 26.3379 168 25.2823C168 24.6856 168.187 24.2266 168.562 23.9053C168.959 23.5611 169.463 23.389 170.071 23.389C170.796 23.389 171.393 23.5841 171.861 23.9742C171.861 26.315 172.832 27.4854 174.774 27.4854C175.617 27.4854 176.284 27.2903 176.775 26.9002C177.267 26.4871 177.512 25.9363 177.512 25.2478C177.512 24.6741 177.337 24.2151 176.986 23.8709C176.635 23.5037 176.178 23.2054 175.617 22.9759C175.079 22.7235 174.482 22.4825 173.827 22.253C173.031 21.9776 172.235 21.6563 171.44 21.2892C170.668 20.899 170.012 20.3941 169.474 19.7745C168.959 19.1549 168.702 18.3402 168.702 17.3305C168.702 15.9076 169.275 14.7831 170.422 13.957C171.592 13.1079 173.207 12.6833 175.266 12.6833C176.974 12.6833 178.378 12.9816 179.478 13.5783C180.578 14.152 181.128 14.9094 181.128 15.8503C181.128 16.401 180.929 16.8371 180.531 17.1583C180.157 17.4796 179.665 17.6403 179.057 17.6403C178.472 17.6403 177.969 17.4567 177.547 17.0895C177.547 16.1486 177.302 15.4372 176.81 14.9552C176.342 14.4504 175.687 14.1979 174.845 14.1979C174.143 14.1979 173.581 14.3586 173.16 14.6799C172.762 15.0011 172.563 15.4372 172.563 15.988C172.563 16.7453 172.914 17.319 173.616 17.7091C174.342 18.0763 175.172 18.4205 176.108 18.7418C176.974 19.0402 177.828 19.3844 178.671 19.7745C179.536 20.1647 180.25 20.6925 180.812 21.358C181.373 22.0006 181.654 22.8497 181.654 23.9053C181.654 25.4888 180.999 26.7395 179.689 27.6575C178.401 28.5525 176.67 29 174.494 29Z" fill="#FF6304"/>
<path d="M191.868 29C190.323 29 188.966 28.6787 187.796 28.0361C186.626 27.3936 185.714 26.4986 185.058 25.3511C184.427 24.2037 184.111 22.8726 184.111 21.358C184.111 19.7057 184.485 18.2255 185.234 16.9174C185.983 15.6093 186.989 14.5766 188.253 13.8193C189.54 13.062 190.967 12.6833 192.535 12.6833C194.571 12.6833 196.197 13.3029 197.414 14.5422C198.631 15.7585 199.239 17.3764 199.239 19.3959C199.239 19.9696 199.157 20.3483 198.993 20.5318C198.83 20.6925 198.572 20.7728 198.221 20.7728H188.849C188.966 22.6317 189.458 24.0775 190.323 25.1102C191.213 26.1199 192.453 26.6248 194.044 26.6248C194.91 26.6248 195.717 26.4412 196.466 26.074C197.238 25.7068 197.999 25.179 198.748 24.4905L199.309 25.7298C198.514 26.7166 197.437 27.5083 196.08 28.105C194.723 28.7017 193.319 29 191.868 29ZM192.219 14.3012C191.306 14.3012 190.546 14.7258 189.937 15.5749C189.329 16.401 188.978 17.5829 188.884 19.1205L195.167 18.9484C195.121 17.4796 194.84 16.3437 194.325 15.5404C193.81 14.7143 193.108 14.3012 192.219 14.3012Z" fill="#FF6304"/>
<path d="M205.553 29C204.477 29 203.587 28.6787 202.885 28.0361C202.183 27.3706 201.832 26.51 201.832 25.4544C201.832 22.8612 203.552 21.1744 206.992 20.3941L211.204 19.4303V17.5714C211.204 16.401 211.029 15.5634 210.678 15.0585C210.35 14.5307 209.8 14.2668 209.028 14.2668C207.156 14.2668 206.197 15.4601 206.15 17.8468C206.009 18.0075 205.787 18.1452 205.483 18.2599C205.179 18.3517 204.863 18.3976 204.535 18.3976C203.95 18.3976 203.494 18.2599 203.166 17.9845C202.839 17.6862 202.675 17.2731 202.675 16.7453C202.675 15.965 202.979 15.2765 203.587 14.6799C204.196 14.0602 205.027 13.5783 206.08 13.2341C207.133 12.8669 208.326 12.6833 209.66 12.6833C213.661 12.6833 215.662 14.4848 215.662 18.0878V25.3511C215.662 26.1543 215.99 26.5559 216.645 26.5559C216.902 26.5559 217.16 26.51 217.417 26.4182C217.698 26.3035 217.92 26.1888 218.084 26.074L218.4 27.4165C217.908 27.8755 217.3 28.2542 216.575 28.5525C215.849 28.8508 215.159 29 214.504 29C213.568 29 212.831 28.7476 212.292 28.2427C211.754 27.7378 211.485 27.0264 211.485 26.1084H211.274C210.549 27.0034 209.672 27.7149 208.642 28.2427C207.636 28.7476 206.606 29 205.553 29ZM207.799 26.5215C208.384 26.5215 208.981 26.3723 209.59 26.074C210.221 25.7757 210.783 25.3741 211.274 24.8692V21.0138L208.256 21.7367C207.46 21.8973 206.84 22.2186 206.395 22.7005C205.974 23.1595 205.764 23.7217 205.764 24.3873C205.764 25.0298 205.939 25.5462 206.29 25.9363C206.665 26.3264 207.168 26.5215 207.799 26.5215Z" fill="#FF6304"/>
<path d="M225.963 29C224.605 29 223.599 28.5754 222.944 27.7263C222.312 26.8543 221.996 25.6495 221.996 24.1119V15.4372L219.715 15.4028C219.715 14.9667 219.762 14.5536 219.855 14.1635C219.972 13.7504 220.124 13.475 220.311 13.3373L221.996 13.2685V10.4802C222.488 10.136 223.155 9.82616 223.997 9.55077C224.839 9.25244 225.647 9.06885 226.419 9V13.062L231.017 12.821C231.134 13.0964 231.193 13.3718 231.193 13.6472C231.193 14.175 231.111 14.6225 230.947 14.9897C230.783 15.3569 230.537 15.5863 230.21 15.6781L226.419 15.5749V23.4923C226.419 24.3643 226.559 25.0184 226.84 25.4544C227.121 25.8675 227.624 26.074 228.35 26.074C228.794 26.074 229.274 25.9937 229.789 25.833C230.303 25.6495 230.818 25.3741 231.333 25.0069L232 26.2461C231.672 26.7051 231.193 27.1411 230.561 27.5542C229.952 27.9673 229.25 28.3115 228.455 28.5869C227.659 28.8623 226.828 29 225.963 29Z" fill="#FF6304"/>
</svg>
